<svg width="200" height="200" viewBox="0 0 200 200" xmlns="http://www.w3.org/2000/svg">
  <defs>
    <!-- Cosmic gradient -->
    <radialGradient id="cosmicCore" cx="50%" cy="50%" r="50%">
      <stop offset="0%" style="stop-color:#77c6ff;stop-opacity:1" />
      <stop offset="30%" style="stop-color:#7877c6;stop-opacity:0.9" />
      <stop offset="60%" style="stop-color:#ff77c6;stop-opacity:0.7" />
      <stop offset="100%" style="stop-color:#77c6ff;stop-opacity:0.3" />
    </radialGradient>
    
    <!-- Outer ring gradient -->
    <radialGradient id="outerRing" cx="50%" cy="50%" r="70%">
      <stop offset="0%" style="stop-color:#ff77c6;stop-opacity:0.1" />
      <stop offset="50%" style="stop-color:#7877c6;stop-opacity:0.5" />
      <stop offset="100%" style="stop-color:#77c6ff;stop-opacity:0.8" />
    </radialGradient>
    
    <!-- Glow effect -->
    <filter id="cosmicGlow">
      <feGaussianBlur stdDeviation="3" result="coloredBlur"/>
      <feMerge> 
        <feMergeNode in="coloredBlur"/>
        <feMergeNode in="SourceGraphic"/>
      </feMerge>
    </filter>
    
    <!-- Inner glow -->
    <filter id="innerGlow">
      <feGaussianBlur stdDeviation="2" result="coloredBlur"/>
      <feMerge> 
        <feMergeNode in="coloredBlur"/>
        <feMergeNode in="SourceGraphic"/>
      </feMerge>
    </filter>
  </defs>
  
  <!-- Outer cosmic ring -->
  <circle cx="100" cy="100" r="95" fill="none" stroke="url(#outerRing)" stroke-width="3" opacity="0.4" filter="url(#cosmicGlow)"/>
  
  <!-- Middle ring -->
  <circle cx="100" cy="100" r="75" fill="none" stroke="#7877c6" stroke-width="2" opacity="0.6"/>
  
  <!-- Inner ring -->
  <circle cx="100" cy="100" r="55" fill="none" stroke="#ff77c6" stroke-width="1" opacity="0.8"/>
  
  <!-- Central core -->
  <circle cx="100" cy="100" r="45" fill="url(#cosmicCore)" opacity="0.9" filter="url(#innerGlow)"/>
  
  <!-- Quantum energy streams -->
  <path d="M 100 45 Q 130 70 100 95 Q 70 120 100 145 Q 130 120 100 95 Q 70 70 100 45" 
        fill="none" stroke="#77c6ff" stroke-width="2" opacity="0.7"/>
  
  <!-- Rotating orbital paths -->
  <path d="M 100 25 A 75 75 0 0 1 175 100 A 75 75 0 0 1 100 175 A 75 75 0 0 1 25 100 A 75 75 0 0 1 100 25" 
        fill="none" stroke="#ff77c6" stroke-width="1" opacity="0.5" stroke-dasharray="5,5"/>
  
  <!-- Quantum particles -->
  <circle cx="100" cy="55" r="2" fill="#77c6ff" opacity="0.9">
    <animate attributeName="opacity" values="0.9;0.3;0.9" dur="2s" repeatCount="indefinite"/>
  </circle>
  <circle cx="145" cy="100" r="2" fill="#ff77c6" opacity="0.8">
    <animate attributeName="opacity" values="0.8;0.4;0.8" dur="2.5s" repeatCount="indefinite"/>
  </circle>
  <circle cx="100" cy="145" r="2" fill="#7877c6" opacity="0.7">
    <animate attributeName="opacity" values="0.7;0.2;0.7" dur="3s" repeatCount="indefinite"/>
  </circle>
  <circle cx="55" cy="100" r="2" fill="#77c6ff" opacity="0.9">
    <animate attributeName="opacity" values="0.9;0.3;0.9" dur="1.8s" repeatCount="indefinite"/>
  </circle>
  
  <!-- Central Lumen symbol -->
  <g filter="url(#innerGlow)">
    <!-- Stylized L -->
    <path d="M 85 75 L 85 125 L 115 125 L 115 115 L 95 115 L 95 75 Z" 
          fill="white" opacity="0.9"/>
    <!-- Cosmic dot -->
    <circle cx="107" cy="93" r="3" fill="#77c6ff" opacity="1"/>
  </g>
  
  <!-- Energy pulses -->
  <circle cx="100" cy="100" r="30" fill="none" stroke="#77c6ff" stroke-width="1" opacity="0.3">
    <animate attributeName="r" values="30;60;30" dur="4s" repeatCount="indefinite"/>
    <animate attributeName="opacity" values="0.3;0.1;0.3" dur="4s" repeatCount="indefinite"/>
  </circle>
</svg>